<svg xmlns="http://www.w3.org/2000/svg" viewBox="0 0 400 200"><path fill="none" stroke="#E0E0E0" stroke-width="3" stroke-miterlimit="10" d="M283.3 57.1h19.8c7.9 0 14.4 6.4 14.4 14.4"/><path fill="none" stroke="#5A699D" stroke-width="3" stroke-linecap="round" stroke-miterlimit="10" d="M243.6 148.4c14.1-14 19.8-34.6 15.5-54-4.4-19.5-18.4-36.2-37.4-42.9-12.7-4.5-27-4.7-39.8 0"/><path fill="none" stroke="#79609B" stroke-width="3" stroke-linecap="round" stroke-miterlimit="10" d="M228 159.5c4.3-2.1 8.3-4.7 11.9-7.7"/><path fill="none" stroke="#605E99" stroke-width="3" stroke-linecap="round" stroke-miterlimit="10" d="M187.9 164.1c11.2 2.6 23.1 1.8 33.9-2"/><path fill="none" stroke="#5A699D" stroke-width="3" stroke-linecap="round" stroke-miterlimit="10" d="M178.3 160.9c1.5.6 3 1.2 4.5 1.7"/><path fill="none" stroke="#0168A8" stroke-width="3" stroke-linecap="round" stroke-miterlimit="10" d="M169.8 156.4c1.1.7 2.2 1.4 3.3 2"/><path fill="none" stroke="#8F629E" stroke-width="3" stroke-linecap="round" stroke-miterlimit="10" d="M167 59.5c-23.2 17.3-30.8 50.4-16.7 75.8 3.7 6.7 8.7 12.6 14.7 17.5"/><path fill="none" stroke="#605E99" stroke-width="3" stroke-linecap="round" stroke-miterlimit="10" d="M176.2 53.9c-1.6.8-3.1 1.6-4.6 2.5M263.8 127c1.4-4.3 2.4-8.7 2.8-13.2"/><path fill="none" stroke="#8F629E" stroke-width="3" stroke-linecap="round" stroke-miterlimit="10" d="M238 161.1c10.2-6.9 18.4-16.6 23.4-27.8"/><path fill="none" stroke="#0168A8" stroke-width="3" stroke-linecap="round" stroke-miterlimit="10" d="M230.5 165.5c1-.5 1.9-1 2.9-1.5"/><path fill="none" stroke="#8F629E" stroke-width="3" stroke-linecap="round" stroke-miterlimit="10" d="M139.8 88.2c-.8 2.5-1.4 5-1.8 7.6"/><path fill="none" stroke="#5A699D" stroke-width="3" stroke-linecap="round" stroke-miterlimit="10" d="M150.3 68.2c-3.7 4.7-6.7 10-8.9 15.5"/><path fill="none" stroke="#79609B" stroke-width="3" stroke-linecap="round" stroke-miterlimit="10" d="M157.2 60.5c-1 .9-1.9 1.9-2.8 2.8"/><path fill="none" stroke="#5474A1" stroke-width="3" stroke-linecap="round" stroke-miterlimit="10" d="M198.3 42.1c-13.8.9-27.2 6.6-37.7 15.5"/><circle fill="none" stroke="#605E99" stroke-width="4" stroke-miterlimit="10" cx="186.4" cy="88.9" r="5.9"/><circle fill="none" stroke="#605E99" stroke-width="4" stroke-miterlimit="10" cx="186.4" cy="126.7" r="5.9"/><path fill="none" stroke="#605E99" stroke-width="4" stroke-miterlimit="10" d="M186.4 94.8v26"/><circle fill="none" stroke="#605E99" stroke-width="4" stroke-miterlimit="10" cx="217.6" cy="126.7" r="5.9"/><path fill="none" stroke="#605E99" stroke-width="4" stroke-miterlimit="10" d="M217.6 120.8v-18.2c0-7.6-6.2-13.8-13.8-13.8"/><path fill="#605E99" d="M206 96.2l-9.2-6.5c-.5-.4-.5-1.1 0-1.5l9.2-6.5c.6-.4 1.5 0 1.5.8v13.1c-.1.6-.9 1-1.5.6z"/><path fill="#E0E0E0" d="M312.3 70.2l4.6 6.5c.3.4.8.4 1.1 0l4.6-6.5c.3-.4 0-1-.5-1h-9.2c-.6 0-.9.6-.6 1z"/><path fill="#5A699D" d="M246.8 74.4c-2.7 0-4.9-2.2-4.9-4.9s2.2-4.9 4.9-4.9 4.9 2.2 4.9 4.9-2.2 4.9-4.9 4.9z"/><path fill="#FFF" d="M246.8 66.1c1.9 0 3.4 1.5 3.4 3.4s-1.5 3.4-3.4 3.4-3.4-1.5-3.4-3.4 1.5-3.4 3.4-3.4m0-3c-3.5 0-6.4 2.9-6.4 6.4s2.9 6.4 6.4 6.4 6.4-2.9 6.4-6.4-2.9-6.4-6.4-6.4z"/><circle fill="#FFF" stroke="#E0E0E0" stroke-width="3" stroke-miterlimit="10" cx="283.3" cy="57.1" r="3.4"/><circle fill="#FFF" stroke="#E0E0E0" stroke-width="3" stroke-miterlimit="10" cx="283.3" cy="83.7" r="3.4"/><circle fill="#FFF" stroke="#E0E0E0" stroke-width="3" stroke-miterlimit="10" cx="317.5" cy="83.7" r="3.4"/><circle fill="#FFF" stroke="#E0E0E0" stroke-width="3" stroke-miterlimit="10" cx="371.6" cy="66.1" r="3.4"/><path fill="none" stroke="#E0E0E0" stroke-width="3" stroke-miterlimit="10" d="M123 133.4h-19.8c-7.9 0-14.4 6.4-14.4 14.4"/><path fill="#E0E0E0" d="M93.9 146.6l-4.6 6.5c-.3.4-.8.4-1.1 0l-4.6-6.5c-.3-.4 0-1 .5-1h9.2c.6 0 .9.6.6 1z"/><circle fill="#FFF" stroke="#E0E0E0" stroke-width="3" stroke-miterlimit="10" cx="123" cy="133.4" r="3.4"/><path fill="#5A699D" d="M271.7 36.7h-27.4c-.7 0-1.2.6-1.2 1.2v19.9c0 .7.6 1.2 1.2 1.2h27.4c.7 0 1.2-.6 1.2-1.2V38c.1-.7-.5-1.3-1.2-1.3z"/><path fill="#5A699D" d="M248.7 56.3v7c0 1.1 1.3 1.6 2.1.9l9-8h-11.1z"/><path fill="#E0E0E0" d="M271.7 33.6h-16.2c-.7 0-1.2-.6-1.2-1.2V20.8c0-.7.6-1.2 1.2-1.2h16.2c.7 0 1.2.6 1.2 1.2v11.5c.1.7-.5 1.3-1.2 1.3z"/><path fill="#E0E0E0" d="M263.8 21.3v-3.4c0-1.1-1.3-1.6-2.1-.9l-4.9 4.3h7zM42.3 135.6H26.1c-.7 0-1.2.6-1.2 1.2v11.5c0 .7.6 1.2 1.2 1.2h16.2c.7 0 1.2-.6 1.2-1.2v-11.5c.1-.6-.5-1.2-1.2-1.2z"/><path fill="#E0E0E0" d="M34.4 147.9v3.4c0 1.1-1.3 1.6-2.1.9l-4.9-4.3h7zM304 25.1h-24.3c-.7 0-1.2.6-1.2 1.2V44c0 .7.6 1.2 1.2 1.2H304c.7 0 1.2-.6 1.2-1.2V26.4c0-.7-.5-1.3-1.2-1.3z"/><path fill="#E0E0E0" d="M291.2 42.7v6c0 1.1-1.3 1.6-2.1.9l-7.9-7h10z"/><path fill="#8F629E" d="M156 148.5c-2.7 0-4.9-2.2-4.9-4.9s2.2-4.9 4.9-4.9 4.9 2.2 4.9 4.9-2.2 4.9-4.9 4.9z"/><path fill="#FFF" d="M156 140.3c1.9 0 3.4 1.5 3.4 3.4s-1.5 3.4-3.4 3.4-3.4-1.5-3.4-3.4c.1-1.9 1.6-3.4 3.4-3.4m0-3c-3.5 0-6.4 2.9-6.4 6.4s2.9 6.4 6.4 6.4 6.4-2.9 6.4-6.4-2.8-6.4-6.4-6.4z"/><path fill="#8F629E" d="M131.1 176.5h27.4c.7 0 1.2-.6 1.2-1.2v-19.9c0-.7-.6-1.2-1.2-1.2h-27.4c-.7 0-1.2.6-1.2 1.2v19.9c-.1.6.5 1.2 1.2 1.2z"/><path fill="#8F629E" d="M154.1 156.9v-7c0-1.1-1.3-1.6-2.1-.9l-9 8h11.1z"/><path fill="#E0E0E0" d="M125.6 184.9h-16.2c-.7 0-1.2-.6-1.2-1.2v-11.5c0-.7.6-1.2 1.2-1.2h16.2c.7 0 1.2.6 1.2 1.2v11.5c0 .7-.5 1.2-1.2 1.2z"/><path fill="#E0E0E0" d="M123.7 172.7v-3.4c0-1.1-1.3-1.6-2.1-.9l-4.9 4.3h7zM374 91.4h-16.2c-.7 0-1.2-.6-1.2-1.2V78.7c0-.7.6-1.2 1.2-1.2H374c.7 0 1.2.6 1.2 1.2v11.5c.1.7-.5 1.2-1.2 1.2z"/><path fill="#E0E0E0" d="M372.1 79.2v-3.4c0-1.1-1.3-1.6-2.1-.9l-4.9 4.3h7zM100.7 141.7H125c.7 0 1.2.6 1.2 1.2v17.6c0 .7-.6 1.2-1.2 1.2h-24.3c-.7 0-1.2-.6-1.2-1.2v-17.6c-.1-.6.5-1.2 1.2-1.2z"/><path fill="#E0E0E0" d="M113.5 159.3v6c0 1.1 1.3 1.6 2.1.9l7.9-7h-10z"/><circle fill="#FFF" cx="144.8" cy="165.3" r="6"/><text transform="translate(141.693 168.702)" fill="#8F629E" font-family="'octicons'" font-size="10"></text><path fill="none" stroke="#E0E0E0" stroke-width="3" stroke-miterlimit="10" d="M286.6 83.7h27.5"/><path fill="#FFF" stroke="#E0E0E0" stroke-width="3" stroke-miterlimit="10" d="M320.9 83.7h9.5c4.9 0 8.8-3.9 8.8-8.8s3.9-8.8 8.8-8.8h20.2"/><circle fill="#FFF" stroke="#E0E0E0" stroke-width="3" stroke-miterlimit="10" cx="54.6" cy="177.8" r="3.4"/><circle fill="#FFF" stroke="#E0E0E0" stroke-width="3" stroke-miterlimit="10" cx="88.7" cy="160.2" r="3.4"/><circle fill="#FFF" stroke="#E0E0E0" stroke-width="3" stroke-miterlimit="10" cx="32.2" cy="160.2" r="3.4"/><path fill="#FFF" stroke="#E0E0E0" stroke-width="3" stroke-miterlimit="10" d="M58 177.8h3.4c4.9 0 8.8-3.9 8.8-8.8s3.9-8.8 8.8-8.8h6.2"/><path fill="none" stroke="#E0E0E0" stroke-width="3" stroke-miterlimit="10" d="M81 160.2H35.6"/><g><path fill="#FFF" d="M258.1 40.9c-4 0-7.2 3.2-7.2 7.2 0 3.2 2.1 5.9 4.9 6.8.4.1.5-.2.5-.3v-1.3c-1.8.3-2.3-.4-2.4-.8-.1-.2-.4-.8-.7-1-.3-.1-.6-.5 0-.5s1 .5 1.1.7c.6 1.1 1.7.8 2.1.6.1-.5.3-.8.5-1-1.6-.2-3.3-.8-3.3-3.5 0-.8.3-1.4.7-1.9-.1-.2-.3-.9.1-1.9 0 0 .6-.2 2 .7.6-.2 1.2-.2 1.8-.2.6 0 1.2.1 1.8.2 1.4-.9 2-.7 2-.7.4 1 .1 1.7.1 1.9.5.5.7 1.1.7 1.9 0 2.8-1.7 3.4-3.3 3.5.3.2.5.7.5 1.3v2c0 .2.1.4.5.3 2.8-1 4.9-3.6 4.9-6.8-.2-4-3.4-7.2-7.3-7.2z"/></g></svg>